<svg width="24" height="24" viewBox="0 0 24 24" fill="none" xmlns="http://www.w3.org/2000/svg">
<path d="M12 0.333328C18.4435 0.333328 23.6667 5.5565 23.6667 12C23.6667 18.4435 18.4435 23.6667 12 23.6667C5.55654 23.6667 0.333374 18.4435 0.333374 12C0.333374 5.5565 5.55654 0.333328 12 0.333328ZM13.1667 5C12.8573 5 12.5605 5.12291 12.3418 5.3417C12.123 5.5605 12 5.85724 12 6.16666V7.33333H10.8334V6.16666C10.8334 5.85724 10.7105 5.5605 10.4917 5.3417C10.2729 5.12291 9.97613 5 9.66671 5C9.35729 5 9.06054 5.12291 8.84175 5.3417C8.62296 5.5605 8.50004 5.85724 8.50004 6.16666V7.33333H7.33337C7.02396 7.33333 6.72721 7.45625 6.50842 7.67504C6.28962 7.89383 6.16671 8.19058 6.16671 8.5C6.16671 8.80941 6.28962 9.10616 6.50842 9.32495C6.72721 9.54375 7.02396 9.66666 7.33337 9.66666V14.3333C7.02396 14.3333 6.72721 14.4562 6.50842 14.675C6.28962 14.8938 6.16671 15.1906 6.16671 15.5C6.16671 15.8094 6.28962 16.1062 6.50842 16.325C6.72721 16.5437 7.02396 16.6667 7.33337 16.6667H8.50004V17.8333C8.50004 18.1427 8.62296 18.4395 8.84175 18.6583C9.06054 18.8771 9.35729 19 9.66671 19C9.97613 19 10.2729 18.8771 10.4917 18.6583C10.7105 18.4395 10.8334 18.1427 10.8334 17.8333V16.6667H12V17.8333C12 18.1427 12.123 18.4395 12.3418 18.6583C12.5605 18.8771 12.8573 19 13.1667 19C13.4761 19 13.7729 18.8771 13.9917 18.6583C14.2105 18.4395 14.3334 18.1427 14.3334 17.8333V16.6667H14.9167C15.4584 16.6667 15.9893 16.5158 16.4501 16.2311C16.9109 15.9463 17.2832 15.5388 17.5255 15.0544C17.7677 14.5699 17.8702 14.0275 17.8216 13.4881C17.7729 12.9486 17.575 12.4333 17.25 12C17.575 11.5667 17.7729 11.0514 17.8216 10.5119C17.8702 9.97246 17.7677 9.4301 17.5255 8.94562C17.2832 8.46115 16.9109 8.0537 16.4501 7.76893C15.9893 7.48416 15.4584 7.33333 14.9167 7.33333H14.3334V6.16666C14.3334 5.85724 14.2105 5.5605 13.9917 5.3417C13.7729 5.12291 13.4761 5 13.1667 5ZM14.9167 13.1667C15.0714 13.1667 15.2198 13.2281 15.3292 13.3375C15.4386 13.4469 15.5 13.5953 15.5 13.75C15.5 13.9047 15.4386 14.0531 15.3292 14.1625C15.2198 14.2719 15.0714 14.3333 14.9167 14.3333H9.66671V13.1667H14.9167ZM14.9167 9.66666C15.0625 9.66639 15.2031 9.72071 15.3108 9.81892C15.4185 9.91713 15.4856 10.0521 15.4987 10.1973C15.5119 10.3425 15.4702 10.4873 15.382 10.6033C15.2937 10.7193 15.1651 10.798 15.0217 10.824L14.9167 10.8333H9.66671V9.66666H14.9167Z" fill="#2EADC5"/>
</svg>
