<svg xmlns="http://www.w3.org/2000/svg" xmlns:xlink="http://www.w3.org/1999/xlink" width="720" zoomAndPan="magnify" viewBox="0 0 540 449.999984" height="600" preserveAspectRatio="xMidYMid meet" version="1.0"><path fill="#2ba3ba" d="M 179.53125 412.03125 C 170.15625 412.03125 162.1875 408.75 155.625 402.1875 C 149.0625 395.625 145.78125 387.65625 145.78125 378.28125 C 145.78125 368.90625 149.0625 360.9375 155.625 354.375 C 162.1875 347.8125 170.15625 344.53125 179.53125 344.53125 C 188.90625 344.53125 196.875 347.8125 203.4375 354.375 C 210 360.9375 213.28125 368.90625 213.28125 378.28125 C 213.28125 387.65625 210 395.625 203.4375 402.1875 C 196.875 408.75 188.90625 412.03125 179.53125 412.03125 Z M 367.03125 412.03125 C 357.65625 412.03125 349.6875 408.75 343.125 402.1875 C 336.5625 395.625 333.28125 387.65625 333.28125 378.28125 C 333.28125 368.90625 336.5625 360.9375 343.125 354.375 C 349.6875 347.8125 357.65625 344.53125 367.03125 344.53125 C 376.40625 344.53125 384.375 347.8125 390.9375 354.375 C 397.5 360.9375 400.78125 368.90625 400.78125 378.28125 C 400.78125 387.65625 397.5 395.625 390.9375 402.1875 C 384.375 408.75 376.40625 412.03125 367.03125 412.03125 Z M 155.15625 102.65625 L 206.71875 209.53125 L 341.71875 209.53125 L 400.3125 102.65625 Z M 141.09375 74.53125 L 417.1875 74.53125 C 424.375 74.53125 429.84375 77.8125 433.59375 84.375 C 437.34375 90.9375 437.34375 97.5 433.59375 104.0625 L 370.3125 217.96875 C 366.875 223.90625 362.421875 228.671875 356.953125 232.265625 C 351.484375 235.859375 345.46875 237.65625 338.90625 237.65625 L 196.875 237.65625 L 170.625 286.40625 L 400.78125 286.40625 L 400.78125 314.53125 L 174.84375 314.53125 C 161.71875 314.53125 152.265625 310.15625 146.484375 301.40625 C 140.703125 292.65625 140.78125 282.8125 146.71875 271.875 L 176.71875 216.5625 L 105.46875 65.625 L 68.90625 65.625 L 68.90625 37.5 L 123.75 37.5 Z M 206.71875 209.53125 L 341.71875 209.53125 Z M 206.71875 209.53125 " fill-opacity="1" fill-rule="nonzero"/></svg>