<svg width="20" height="23" viewBox="0 0 20 23" fill="none" xmlns="http://www.w3.org/2000/svg">
<path d="M7.68581 0.868437C7.61312 0.828698 7.52199 0.855403 7.48224 0.928087L4.83867 5.76272C4.81959 5.79762 4.81515 5.83868 4.82633 5.87686C4.83752 5.91503 4.86341 5.9472 4.89832 5.96629L9.73305 8.60991C9.76795 8.629 9.80901 8.63344 9.84719 8.62225C9.88537 8.61106 9.91754 8.58517 9.93662 8.55026L10.8137 6.94629C10.8534 6.8736 10.8267 6.78246 10.754 6.74272L8.97185 5.7682C9.32486 5.71493 9.68158 5.68823 10.039 5.68842H10.0391C13.9496 5.68842 17.1 8.83887 17.1 12.7494C17.1 16.6599 13.9496 19.8103 10.0391 19.8103C6.12857 19.8103 2.97812 16.6599 2.97812 12.7494C2.97812 11.9305 3.11665 11.1455 3.37075 10.4156C3.39555 10.3444 3.36362 10.2659 3.29618 10.2321L1.65493 9.41151C1.61701 9.39255 1.57285 9.39052 1.53336 9.40592C1.49387 9.42131 1.46274 9.45269 1.44766 9.49231C1.06197 10.5055 0.85 11.6033 0.85 12.7494C0.85 17.8135 4.97493 21.9384 10.0391 21.9384C15.1032 21.9384 19.2281 17.8135 19.2281 12.7494C19.2281 7.68523 15.1032 3.5603 10.0391 3.5603C9.47496 3.5603 8.9227 3.612 8.38639 3.71026L9.34944 1.94895C9.36853 1.91405 9.37296 1.87299 9.36178 1.83481C9.35059 1.79663 9.32469 1.76446 9.28979 1.74538L7.68581 0.868437ZM12.992 7.49605C12.9231 7.4501 12.83 7.46872 12.784 7.53765L9.45722 12.5278C9.4408 12.5524 9.43203 12.5814 9.43203 12.611V18.4369C9.43203 18.5197 9.49919 18.5869 9.58203 18.5869H10.4961C10.5789 18.5869 10.6461 18.5197 10.6461 18.4369V12.9332L13.7941 8.21106C13.8401 8.14213 13.8214 8.04901 13.7525 8.00305L12.992 7.49605Z" fill="#2EADC5" stroke="#2EADC5" stroke-width="0.3" stroke-linejoin="round"/>
</svg>
