<svg width="26" height="22" viewBox="0 0 26 22" fill="none" xmlns="http://www.w3.org/2000/svg">
<path d="M13.0559 8.96526L11.6822 6.21637C11.3411 5.53567 10.7495 4.55688 9.91208 3.76556C9.08849 2.98652 8.10202 2.45641 6.90965 2.45641C4.33438 2.45641 2.29998 4.49389 2.29998 6.94316C2.29998 8.80393 3.15124 10.1177 5.17027 12.1213C5.68809 12.6346 6.27813 13.1893 6.93116 13.8008C8.63367 15.3988 10.751 17.3871 13.0559 20.0454C15.3607 17.3871 17.4781 15.3988 19.1806 13.8008C19.8336 13.1893 20.4252 12.633 20.9415 12.1213C22.9605 10.1177 23.8118 8.80393 23.8118 6.94316C23.8118 4.49389 21.7774 2.45641 19.2021 2.45641C18.0082 2.45641 17.0233 2.98652 16.1997 3.76556C15.3622 4.55688 14.7707 5.53567 14.4296 6.21637L13.0559 8.96526ZM13.6582 21.7064C13.5842 21.794 13.492 21.8645 13.3879 21.9128C13.2839 21.9611 13.1706 21.9862 13.0559 21.9862C12.9412 21.9862 12.8278 21.9611 12.7238 21.9128C12.6198 21.8645 12.5275 21.794 12.4535 21.7064C9.99352 18.7839 7.76705 16.6941 5.93394 14.9747C2.76095 11.9954 0.763428 10.1223 0.763428 6.94316C0.763428 3.61651 3.51386 0.919857 6.90965 0.919857C9.36814 0.919857 11.0875 2.53324 12.1401 4.00526C12.5396 4.5661 12.8438 5.10544 13.0559 5.52952C13.3217 4.99876 13.6279 4.48917 13.9717 4.00526C15.0242 2.5317 16.7436 0.919857 19.2021 0.919857C22.5979 0.919857 25.3483 3.61651 25.3483 6.94316C25.3483 10.1223 23.3508 11.9954 20.1778 14.9747C18.3447 16.6957 16.1182 18.7854 13.6582 21.7048V21.7064Z" fill="#2EADC5"/>
</svg>
