<svg xmlns="http://www.w3.org/2000/svg" xmlns:xlink="http://www.w3.org/1999/xlink" width="720" zoomAndPan="magnify" viewBox="0 0 540 449.999984" height="600" preserveAspectRatio="xMidYMid meet" version="1.0"><defs><clipPath id="bf2be7c68e"><path d="M 73.5625 28.5625 L 466.5625 28.5625 L 466.5625 421.5625 L 73.5625 421.5625 Z M 73.5625 28.5625 " clip-rule="nonzero"/></clipPath></defs><path fill="#ffffff" d="M 149.0625 330.46875 C 168.75 317.96875 188.203125 308.515625 207.421875 302.109375 C 226.640625 295.703125 247.5 292.5 270 292.5 C 292.5 292.5 313.4375 295.703125 332.8125 302.109375 C 352.1875 308.515625 371.71875 317.96875 391.40625 330.46875 C 405.15625 313.59375 414.921875 296.5625 420.703125 279.375 C 426.484375 262.1875 429.375 244.0625 429.375 225 C 429.375 179.6875 414.140625 141.796875 383.671875 111.328125 C 353.203125 80.859375 315.3125 65.625 270 65.625 C 224.6875 65.625 186.796875 80.859375 156.328125 111.328125 C 125.859375 141.796875 110.625 179.6875 110.625 225 C 110.625 244.0625 113.59375 262.1875 119.53125 279.375 C 125.46875 296.5625 135.3125 313.59375 149.0625 330.46875 Z M 270 239.0625 C 251.875 239.0625 236.640625 232.890625 224.296875 220.546875 C 211.953125 208.203125 205.78125 192.96875 205.78125 174.84375 C 205.78125 156.71875 211.953125 141.484375 224.296875 129.140625 C 236.640625 116.796875 251.875 110.625 270 110.625 C 288.125 110.625 303.359375 116.796875 315.703125 129.140625 C 328.046875 141.484375 334.21875 156.71875 334.21875 174.84375 C 334.21875 192.96875 328.046875 208.203125 315.703125 220.546875 C 303.359375 232.890625 288.125 239.0625 270 239.0625 Z M 270 412.5 C 243.75 412.5 219.21875 407.578125 196.40625 397.734375 C 173.59375 387.890625 153.75 374.453125 136.875 357.421875 C 120 340.390625 106.71875 320.46875 97.03125 297.65625 C 87.34375 274.84375 82.5 250.46875 82.5 224.53125 C 82.5 198.90625 87.421875 174.6875 97.265625 151.875 C 107.109375 129.0625 120.546875 109.21875 137.578125 92.34375 C 154.609375 75.46875 174.53125 62.109375 197.34375 52.265625 C 220.15625 42.421875 244.53125 37.5 270.46875 37.5 C 296.09375 37.5 320.3125 42.421875 343.125 52.265625 C 365.9375 62.109375 385.78125 75.46875 402.65625 92.34375 C 419.53125 109.21875 432.890625 129.0625 442.734375 151.875 C 452.578125 174.6875 457.5 199.0625 457.5 225 C 457.5 250.625 452.578125 274.84375 442.734375 297.65625 C 432.890625 320.46875 419.53125 340.390625 402.65625 357.421875 C 385.78125 374.453125 365.9375 387.890625 343.125 397.734375 C 320.3125 407.578125 295.9375 412.5 270 412.5 Z M 270 412.5 " fill-opacity="1" fill-rule="nonzero"/><g clip-path="url(#bf2be7c68e)"><path fill="#2ba3ba" d="M 270.0625 28.5625 C 161.496094 28.5625 73.5625 116.496094 73.5625 225.0625 C 73.5625 333.625 161.496094 421.5625 270.0625 421.5625 C 378.625 421.5625 466.5625 333.625 466.5625 225.0625 C 466.5625 116.496094 378.625 28.5625 270.0625 28.5625 Z M 270.0625 382.261719 C 183.207031 382.261719 112.859375 311.914062 112.859375 225.0625 C 112.859375 138.207031 183.207031 67.859375 270.0625 67.859375 C 356.914062 67.859375 427.261719 138.207031 427.261719 225.0625 C 427.261719 311.914062 356.914062 382.261719 270.0625 382.261719 Z M 270.0625 382.261719 " fill-opacity="1" fill-rule="nonzero"/></g></svg>